<?xml version="1.0" encoding="utf-8" standalone="no"?>
<!DOCTYPE svg PUBLIC "-//W3C//DTD SVG 1.1//EN"
  "http://www.w3.org/Graphics/SVG/1.1/DTD/svg11.dtd">
<svg xmlns:xlink="http://www.w3.org/1999/xlink" width="460.8pt" height="345.6pt" viewBox="0 0 460.8 345.6" xmlns="http://www.w3.org/2000/svg" version="1.1">
 <metadata>
  <rdf:RDF xmlns:dc="http://purl.org/dc/elements/1.1/" xmlns:cc="http://creativecommons.org/ns#" xmlns:rdf="http://www.w3.org/1999/02/22-rdf-syntax-ns#">
   <cc:Work>
    <dc:type rdf:resource="http://purl.org/dc/dcmitype/StillImage"/>
    <dc:date>2024-07-29T09:45:55.395769</dc:date>
    <dc:format>image/svg+xml</dc:format>
    <dc:creator>
     <cc:Agent>
      <dc:title>Matplotlib v3.8.2, https://matplotlib.org/</dc:title>
     </cc:Agent>
    </dc:creator>
   </cc:Work>
  </rdf:RDF>
 </metadata>
 <defs>
  <style type="text/css">*{stroke-linejoin: round; stroke-linecap: butt}</style>
 </defs>
 <g id="figure_1">
  <g id="patch_1">
   <path d="M 0 345.6 
L 460.8 345.6 
L 460.8 0 
L 0 0 
z
" style="fill: #ffffff"/>
  </g>
  <g id="axes_1">
   <g id="patch_2">
    <path d="M 57.6 307.584 
L 414.72 307.584 
L 414.72 41.472 
L 57.6 41.472 
z
" style="fill: #ffffff"/>
   </g>
   <g id="matplotlib.axis_1">
    <g id="xtick_1">
     <g id="line2d_1">
      <path d="M 73.832727 307.584 
L 73.832727 41.472 
" clip-path="url(#p3bf2e7408a)" style="fill: none; stroke: #b0b0b0; stroke-width: 0.8; stroke-linecap: square"/>
     </g>
     <g id="line2d_2">
      <defs>
       <path id="m127e49edfb" d="M 0 0 
L 0 3.5 
" style="stroke: #000000; stroke-width: 0.8"/>
      </defs>
      <g>
       <use xlink:href="#m127e49edfb" x="73.832727" y="307.584" style="stroke: #000000; stroke-width: 0.8"/>
      </g>
     </g>
     <g id="text_1">
      <!-- $\mathdefault{10^{2}}$ -->
      <g transform="translate(65.032727 322.182437) scale(0.1 -0.1)">
       <defs>
        <path id="DejaVuSans-31" d="M 794 531 
L 1825 531 
L 1825 4091 
L 703 3866 
L 703 4441 
L 1819 4666 
L 2450 4666 
L 2450 531 
L 3481 531 
L 3481 0 
L 794 0 
L 794 531 
z
" transform="scale(0.015625)"/>
        <path id="DejaVuSans-30" d="M 2034 4250 
Q 1547 4250 1301 3770 
Q 1056 3291 1056 2328 
Q 1056 1369 1301 889 
Q 1547 409 2034 409 
Q 2525 409 2770 889 
Q 3016 1369 3016 2328 
Q 3016 3291 2770 3770 
Q 2525 4250 2034 4250 
z
M 2034 4750 
Q 2819 4750 3233 4129 
Q 3647 3509 3647 2328 
Q 3647 1150 3233 529 
Q 2819 -91 2034 -91 
Q 1250 -91 836 529 
Q 422 1150 422 2328 
Q 422 3509 836 4129 
Q 1250 4750 2034 4750 
z
" transform="scale(0.015625)"/>
        <path id="DejaVuSans-32" d="M 1228 531 
L 3431 531 
L 3431 0 
L 469 0 
L 469 531 
Q 828 903 1448 1529 
Q 2069 2156 2228 2338 
Q 2531 2678 2651 2914 
Q 2772 3150 2772 3378 
Q 2772 3750 2511 3984 
Q 2250 4219 1831 4219 
Q 1534 4219 1204 4116 
Q 875 4013 500 3803 
L 500 4441 
Q 881 4594 1212 4672 
Q 1544 4750 1819 4750 
Q 2544 4750 2975 4387 
Q 3406 4025 3406 3419 
Q 3406 3131 3298 2873 
Q 3191 2616 2906 2266 
Q 2828 2175 2409 1742 
Q 1991 1309 1228 531 
z
" transform="scale(0.015625)"/>
       </defs>
       <use xlink:href="#DejaVuSans-31" transform="translate(0 0.765625)"/>
       <use xlink:href="#DejaVuSans-30" transform="translate(63.623047 0.765625)"/>
       <use xlink:href="#DejaVuSans-32" transform="translate(128.203125 39.046875) scale(0.7)"/>
      </g>
     </g>
    </g>
    <g id="xtick_2">
     <g id="line2d_3">
      <path d="M 236.16 307.584 
L 236.16 41.472 
" clip-path="url(#p3bf2e7408a)" style="fill: none; stroke: #b0b0b0; stroke-width: 0.8; stroke-linecap: square"/>
     </g>
     <g id="line2d_4">
      <g>
       <use xlink:href="#m127e49edfb" x="236.16" y="307.584" style="stroke: #000000; stroke-width: 0.8"/>
      </g>
     </g>
     <g id="text_2">
      <!-- $\mathdefault{10^{3}}$ -->
      <g transform="translate(227.36 322.182437) scale(0.1 -0.1)">
       <defs>
        <path id="DejaVuSans-33" d="M 2597 2516 
Q 3050 2419 3304 2112 
Q 3559 1806 3559 1356 
Q 3559 666 3084 287 
Q 2609 -91 1734 -91 
Q 1441 -91 1130 -33 
Q 819 25 488 141 
L 488 750 
Q 750 597 1062 519 
Q 1375 441 1716 441 
Q 2309 441 2620 675 
Q 2931 909 2931 1356 
Q 2931 1769 2642 2001 
Q 2353 2234 1838 2234 
L 1294 2234 
L 1294 2753 
L 1863 2753 
Q 2328 2753 2575 2939 
Q 2822 3125 2822 3475 
Q 2822 3834 2567 4026 
Q 2313 4219 1838 4219 
Q 1578 4219 1281 4162 
Q 984 4106 628 3988 
L 628 4550 
Q 988 4650 1302 4700 
Q 1616 4750 1894 4750 
Q 2613 4750 3031 4423 
Q 3450 4097 3450 3541 
Q 3450 3153 3228 2886 
Q 3006 2619 2597 2516 
z
" transform="scale(0.015625)"/>
       </defs>
       <use xlink:href="#DejaVuSans-31" transform="translate(0 0.765625)"/>
       <use xlink:href="#DejaVuSans-30" transform="translate(63.623047 0.765625)"/>
       <use xlink:href="#DejaVuSans-33" transform="translate(128.203125 39.046875) scale(0.7)"/>
      </g>
     </g>
    </g>
    <g id="xtick_3">
     <g id="line2d_5">
      <path d="M 398.487273 307.584 
L 398.487273 41.472 
" clip-path="url(#p3bf2e7408a)" style="fill: none; stroke: #b0b0b0; stroke-width: 0.8; stroke-linecap: square"/>
     </g>
     <g id="line2d_6">
      <g>
       <use xlink:href="#m127e49edfb" x="398.487273" y="307.584" style="stroke: #000000; stroke-width: 0.8"/>
      </g>
     </g>
     <g id="text_3">
      <!-- $\mathdefault{10^{4}}$ -->
      <g transform="translate(389.687273 322.182437) scale(0.1 -0.1)">
       <defs>
        <path id="DejaVuSans-34" d="M 2419 4116 
L 825 1625 
L 2419 1625 
L 2419 4116 
z
M 2253 4666 
L 3047 4666 
L 3047 1625 
L 3713 1625 
L 3713 1100 
L 3047 1100 
L 3047 0 
L 2419 0 
L 2419 1100 
L 313 1100 
L 313 1709 
L 2253 4666 
z
" transform="scale(0.015625)"/>
       </defs>
       <use xlink:href="#DejaVuSans-31" transform="translate(0 0.684375)"/>
       <use xlink:href="#DejaVuSans-30" transform="translate(63.623047 0.684375)"/>
       <use xlink:href="#DejaVuSans-34" transform="translate(128.203125 38.965625) scale(0.7)"/>
      </g>
     </g>
    </g>
    <g id="xtick_4">
     <g id="line2d_7">
      <defs>
       <path id="mb97d959bd1" d="M 0 0 
L 0 2 
" style="stroke: #000000; stroke-width: 0.6"/>
      </defs>
      <g>
       <use xlink:href="#mb97d959bd1" x="58.101589" y="307.584" style="stroke: #000000; stroke-width: 0.6"/>
      </g>
     </g>
    </g>
    <g id="xtick_5">
     <g id="line2d_8">
      <g>
       <use xlink:href="#mb97d959bd1" x="66.405039" y="307.584" style="stroke: #000000; stroke-width: 0.6"/>
      </g>
     </g>
    </g>
    <g id="xtick_6">
     <g id="line2d_9">
      <g>
       <use xlink:href="#mb97d959bd1" x="122.698105" y="307.584" style="stroke: #000000; stroke-width: 0.6"/>
      </g>
     </g>
    </g>
    <g id="xtick_7">
     <g id="line2d_10">
      <g>
       <use xlink:href="#mb97d959bd1" x="151.282519" y="307.584" style="stroke: #000000; stroke-width: 0.6"/>
      </g>
     </g>
    </g>
    <g id="xtick_8">
     <g id="line2d_11">
      <g>
       <use xlink:href="#mb97d959bd1" x="171.563484" y="307.584" style="stroke: #000000; stroke-width: 0.6"/>
      </g>
     </g>
    </g>
    <g id="xtick_9">
     <g id="line2d_12">
      <g>
       <use xlink:href="#mb97d959bd1" x="187.294622" y="307.584" style="stroke: #000000; stroke-width: 0.6"/>
      </g>
     </g>
    </g>
    <g id="xtick_10">
     <g id="line2d_13">
      <g>
       <use xlink:href="#mb97d959bd1" x="200.147898" y="307.584" style="stroke: #000000; stroke-width: 0.6"/>
      </g>
     </g>
    </g>
    <g id="xtick_11">
     <g id="line2d_14">
      <g>
       <use xlink:href="#mb97d959bd1" x="211.015187" y="307.584" style="stroke: #000000; stroke-width: 0.6"/>
      </g>
     </g>
    </g>
    <g id="xtick_12">
     <g id="line2d_15">
      <g>
       <use xlink:href="#mb97d959bd1" x="220.428862" y="307.584" style="stroke: #000000; stroke-width: 0.6"/>
      </g>
     </g>
    </g>
    <g id="xtick_13">
     <g id="line2d_16">
      <g>
       <use xlink:href="#mb97d959bd1" x="228.732311" y="307.584" style="stroke: #000000; stroke-width: 0.6"/>
      </g>
     </g>
    </g>
    <g id="xtick_14">
     <g id="line2d_17">
      <g>
       <use xlink:href="#mb97d959bd1" x="285.025378" y="307.584" style="stroke: #000000; stroke-width: 0.6"/>
      </g>
     </g>
    </g>
    <g id="xtick_15">
     <g id="line2d_18">
      <g>
       <use xlink:href="#mb97d959bd1" x="313.609792" y="307.584" style="stroke: #000000; stroke-width: 0.6"/>
      </g>
     </g>
    </g>
    <g id="xtick_16">
     <g id="line2d_19">
      <g>
       <use xlink:href="#mb97d959bd1" x="333.890756" y="307.584" style="stroke: #000000; stroke-width: 0.6"/>
      </g>
     </g>
    </g>
    <g id="xtick_17">
     <g id="line2d_20">
      <g>
       <use xlink:href="#mb97d959bd1" x="349.621895" y="307.584" style="stroke: #000000; stroke-width: 0.6"/>
      </g>
     </g>
    </g>
    <g id="xtick_18">
     <g id="line2d_21">
      <g>
       <use xlink:href="#mb97d959bd1" x="362.47517" y="307.584" style="stroke: #000000; stroke-width: 0.6"/>
      </g>
     </g>
    </g>
    <g id="xtick_19">
     <g id="line2d_22">
      <g>
       <use xlink:href="#mb97d959bd1" x="373.34246" y="307.584" style="stroke: #000000; stroke-width: 0.6"/>
      </g>
     </g>
    </g>
    <g id="xtick_20">
     <g id="line2d_23">
      <g>
       <use xlink:href="#mb97d959bd1" x="382.756135" y="307.584" style="stroke: #000000; stroke-width: 0.6"/>
      </g>
     </g>
    </g>
    <g id="xtick_21">
     <g id="line2d_24">
      <g>
       <use xlink:href="#mb97d959bd1" x="391.059584" y="307.584" style="stroke: #000000; stroke-width: 0.6"/>
      </g>
     </g>
    </g>
    <g id="text_4">
     <!-- Frequency (Hz) -->
     <g transform="translate(198.455312 335.860562) scale(0.1 -0.1)">
      <defs>
       <path id="DejaVuSans-46" d="M 628 4666 
L 3309 4666 
L 3309 4134 
L 1259 4134 
L 1259 2759 
L 3109 2759 
L 3109 2228 
L 1259 2228 
L 1259 0 
L 628 0 
L 628 4666 
z
" transform="scale(0.015625)"/>
       <path id="DejaVuSans-72" d="M 2631 2963 
Q 2534 3019 2420 3045 
Q 2306 3072 2169 3072 
Q 1681 3072 1420 2755 
Q 1159 2438 1159 1844 
L 1159 0 
L 581 0 
L 581 3500 
L 1159 3500 
L 1159 2956 
Q 1341 3275 1631 3429 
Q 1922 3584 2338 3584 
Q 2397 3584 2469 3576 
Q 2541 3569 2628 3553 
L 2631 2963 
z
" transform="scale(0.015625)"/>
       <path id="DejaVuSans-65" d="M 3597 1894 
L 3597 1613 
L 953 1613 
Q 991 1019 1311 708 
Q 1631 397 2203 397 
Q 2534 397 2845 478 
Q 3156 559 3463 722 
L 3463 178 
Q 3153 47 2828 -22 
Q 2503 -91 2169 -91 
Q 1331 -91 842 396 
Q 353 884 353 1716 
Q 353 2575 817 3079 
Q 1281 3584 2069 3584 
Q 2775 3584 3186 3129 
Q 3597 2675 3597 1894 
z
M 3022 2063 
Q 3016 2534 2758 2815 
Q 2500 3097 2075 3097 
Q 1594 3097 1305 2825 
Q 1016 2553 972 2059 
L 3022 2063 
z
" transform="scale(0.015625)"/>
       <path id="DejaVuSans-71" d="M 947 1747 
Q 947 1113 1208 752 
Q 1469 391 1925 391 
Q 2381 391 2643 752 
Q 2906 1113 2906 1747 
Q 2906 2381 2643 2742 
Q 2381 3103 1925 3103 
Q 1469 3103 1208 2742 
Q 947 2381 947 1747 
z
M 2906 525 
Q 2725 213 2448 61 
Q 2172 -91 1784 -91 
Q 1150 -91 751 415 
Q 353 922 353 1747 
Q 353 2572 751 3078 
Q 1150 3584 1784 3584 
Q 2172 3584 2448 3432 
Q 2725 3281 2906 2969 
L 2906 3500 
L 3481 3500 
L 3481 -1331 
L 2906 -1331 
L 2906 525 
z
" transform="scale(0.015625)"/>
       <path id="DejaVuSans-75" d="M 544 1381 
L 544 3500 
L 1119 3500 
L 1119 1403 
Q 1119 906 1312 657 
Q 1506 409 1894 409 
Q 2359 409 2629 706 
Q 2900 1003 2900 1516 
L 2900 3500 
L 3475 3500 
L 3475 0 
L 2900 0 
L 2900 538 
Q 2691 219 2414 64 
Q 2138 -91 1772 -91 
Q 1169 -91 856 284 
Q 544 659 544 1381 
z
M 1991 3584 
L 1991 3584 
z
" transform="scale(0.015625)"/>
       <path id="DejaVuSans-6e" d="M 3513 2113 
L 3513 0 
L 2938 0 
L 2938 2094 
Q 2938 2591 2744 2837 
Q 2550 3084 2163 3084 
Q 1697 3084 1428 2787 
Q 1159 2491 1159 1978 
L 1159 0 
L 581 0 
L 581 3500 
L 1159 3500 
L 1159 2956 
Q 1366 3272 1645 3428 
Q 1925 3584 2291 3584 
Q 2894 3584 3203 3211 
Q 3513 2838 3513 2113 
z
" transform="scale(0.015625)"/>
       <path id="DejaVuSans-63" d="M 3122 3366 
L 3122 2828 
Q 2878 2963 2633 3030 
Q 2388 3097 2138 3097 
Q 1578 3097 1268 2742 
Q 959 2388 959 1747 
Q 959 1106 1268 751 
Q 1578 397 2138 397 
Q 2388 397 2633 464 
Q 2878 531 3122 666 
L 3122 134 
Q 2881 22 2623 -34 
Q 2366 -91 2075 -91 
Q 1284 -91 818 406 
Q 353 903 353 1747 
Q 353 2603 823 3093 
Q 1294 3584 2113 3584 
Q 2378 3584 2631 3529 
Q 2884 3475 3122 3366 
z
" transform="scale(0.015625)"/>
       <path id="DejaVuSans-79" d="M 2059 -325 
Q 1816 -950 1584 -1140 
Q 1353 -1331 966 -1331 
L 506 -1331 
L 506 -850 
L 844 -850 
Q 1081 -850 1212 -737 
Q 1344 -625 1503 -206 
L 1606 56 
L 191 3500 
L 800 3500 
L 1894 763 
L 2988 3500 
L 3597 3500 
L 2059 -325 
z
" transform="scale(0.015625)"/>
       <path id="DejaVuSans-20" transform="scale(0.015625)"/>
       <path id="DejaVuSans-28" d="M 1984 4856 
Q 1566 4138 1362 3434 
Q 1159 2731 1159 2009 
Q 1159 1288 1364 580 
Q 1569 -128 1984 -844 
L 1484 -844 
Q 1016 -109 783 600 
Q 550 1309 550 2009 
Q 550 2706 781 3412 
Q 1013 4119 1484 4856 
L 1984 4856 
z
" transform="scale(0.015625)"/>
       <path id="DejaVuSans-48" d="M 628 4666 
L 1259 4666 
L 1259 2753 
L 3553 2753 
L 3553 4666 
L 4184 4666 
L 4184 0 
L 3553 0 
L 3553 2222 
L 1259 2222 
L 1259 0 
L 628 0 
L 628 4666 
z
" transform="scale(0.015625)"/>
       <path id="DejaVuSans-7a" d="M 353 3500 
L 3084 3500 
L 3084 2975 
L 922 459 
L 3084 459 
L 3084 0 
L 275 0 
L 275 525 
L 2438 3041 
L 353 3041 
L 353 3500 
z
" transform="scale(0.015625)"/>
       <path id="DejaVuSans-29" d="M 513 4856 
L 1013 4856 
Q 1481 4119 1714 3412 
Q 1947 2706 1947 2009 
Q 1947 1309 1714 600 
Q 1481 -109 1013 -844 
L 513 -844 
Q 928 -128 1133 580 
Q 1338 1288 1338 2009 
Q 1338 2731 1133 3434 
Q 928 4138 513 4856 
z
" transform="scale(0.015625)"/>
      </defs>
      <use xlink:href="#DejaVuSans-46"/>
      <use xlink:href="#DejaVuSans-72" x="50.269531"/>
      <use xlink:href="#DejaVuSans-65" x="89.132812"/>
      <use xlink:href="#DejaVuSans-71" x="150.65625"/>
      <use xlink:href="#DejaVuSans-75" x="214.132812"/>
      <use xlink:href="#DejaVuSans-65" x="277.511719"/>
      <use xlink:href="#DejaVuSans-6e" x="339.035156"/>
      <use xlink:href="#DejaVuSans-63" x="402.414062"/>
      <use xlink:href="#DejaVuSans-79" x="457.394531"/>
      <use xlink:href="#DejaVuSans-20" x="516.574219"/>
      <use xlink:href="#DejaVuSans-28" x="548.361328"/>
      <use xlink:href="#DejaVuSans-48" x="587.375"/>
      <use xlink:href="#DejaVuSans-7a" x="662.570312"/>
      <use xlink:href="#DejaVuSans-29" x="715.060547"/>
     </g>
    </g>
   </g>
   <g id="matplotlib.axis_2">
    <g id="ytick_1">
     <g id="line2d_25">
      <path d="M 57.6 287.920511 
L 414.72 287.920511 
" clip-path="url(#p3bf2e7408a)" style="fill: none; stroke: #b0b0b0; stroke-width: 0.8; stroke-linecap: square"/>
     </g>
     <g id="line2d_26">
      <defs>
       <path id="me45b1b7aa8" d="M 0 0 
L -3.5 0 
" style="stroke: #000000; stroke-width: 0.8"/>
      </defs>
      <g>
       <use xlink:href="#me45b1b7aa8" x="57.6" y="287.920511" style="stroke: #000000; stroke-width: 0.8"/>
      </g>
     </g>
     <g id="text_5">
      <!-- $\mathdefault{10^{-2}}$ -->
      <g transform="translate(27.1 291.719729) scale(0.1 -0.1)">
       <defs>
        <path id="DejaVuSans-2212" d="M 678 2272 
L 4684 2272 
L 4684 1741 
L 678 1741 
L 678 2272 
z
" transform="scale(0.015625)"/>
       </defs>
       <use xlink:href="#DejaVuSans-31" transform="translate(0 0.765625)"/>
       <use xlink:href="#DejaVuSans-30" transform="translate(63.623047 0.765625)"/>
       <use xlink:href="#DejaVuSans-2212" transform="translate(128.203125 39.046875) scale(0.7)"/>
       <use xlink:href="#DejaVuSans-32" transform="translate(186.855469 39.046875) scale(0.7)"/>
      </g>
     </g>
    </g>
    <g id="ytick_2">
     <g id="line2d_27">
      <path d="M 57.6 169.608356 
L 414.72 169.608356 
" clip-path="url(#p3bf2e7408a)" style="fill: none; stroke: #b0b0b0; stroke-width: 0.8; stroke-linecap: square"/>
     </g>
     <g id="line2d_28">
      <g>
       <use xlink:href="#me45b1b7aa8" x="57.6" y="169.608356" style="stroke: #000000; stroke-width: 0.8"/>
      </g>
     </g>
     <g id="text_6">
      <!-- $\mathdefault{10^{-1}}$ -->
      <g transform="translate(27.1 173.407575) scale(0.1 -0.1)">
       <use xlink:href="#DejaVuSans-31" transform="translate(0 0.684375)"/>
       <use xlink:href="#DejaVuSans-30" transform="translate(63.623047 0.684375)"/>
       <use xlink:href="#DejaVuSans-2212" transform="translate(128.203125 38.965625) scale(0.7)"/>
       <use xlink:href="#DejaVuSans-31" transform="translate(186.855469 38.965625) scale(0.7)"/>
      </g>
     </g>
    </g>
    <g id="ytick_3">
     <g id="line2d_29">
      <path d="M 57.6 51.296202 
L 414.72 51.296202 
" clip-path="url(#p3bf2e7408a)" style="fill: none; stroke: #b0b0b0; stroke-width: 0.8; stroke-linecap: square"/>
     </g>
     <g id="line2d_30">
      <g>
       <use xlink:href="#me45b1b7aa8" x="57.6" y="51.296202" style="stroke: #000000; stroke-width: 0.8"/>
      </g>
     </g>
     <g id="text_7">
      <!-- $\mathdefault{10^{0}}$ -->
      <g transform="translate(33 55.09542) scale(0.1 -0.1)">
       <use xlink:href="#DejaVuSans-31" transform="translate(0 0.765625)"/>
       <use xlink:href="#DejaVuSans-30" transform="translate(63.623047 0.765625)"/>
       <use xlink:href="#DejaVuSans-30" transform="translate(128.203125 39.046875) scale(0.7)"/>
      </g>
     </g>
    </g>
    <g id="ytick_4">
     <g id="line2d_31">
      <defs>
       <path id="m4c193cd9bf" d="M 0 0 
L -2 0 
" style="stroke: #000000; stroke-width: 0.6"/>
      </defs>
      <g>
       <use xlink:href="#m4c193cd9bf" x="57.6" y="306.247295" style="stroke: #000000; stroke-width: 0.6"/>
      </g>
     </g>
    </g>
    <g id="ytick_5">
     <g id="line2d_32">
      <g>
       <use xlink:href="#m4c193cd9bf" x="57.6" y="299.386143" style="stroke: #000000; stroke-width: 0.6"/>
      </g>
     </g>
    </g>
    <g id="ytick_6">
     <g id="line2d_33">
      <g>
       <use xlink:href="#m4c193cd9bf" x="57.6" y="293.334178" style="stroke: #000000; stroke-width: 0.6"/>
      </g>
     </g>
    </g>
    <g id="ytick_7">
     <g id="line2d_34">
      <g>
       <use xlink:href="#m4c193cd9bf" x="57.6" y="252.305003" style="stroke: #000000; stroke-width: 0.6"/>
      </g>
     </g>
    </g>
    <g id="ytick_8">
     <g id="line2d_35">
      <g>
       <use xlink:href="#m4c193cd9bf" x="57.6" y="231.471267" style="stroke: #000000; stroke-width: 0.6"/>
      </g>
     </g>
    </g>
    <g id="ytick_9">
     <g id="line2d_36">
      <g>
       <use xlink:href="#m4c193cd9bf" x="57.6" y="216.689496" style="stroke: #000000; stroke-width: 0.6"/>
      </g>
     </g>
    </g>
    <g id="ytick_10">
     <g id="line2d_37">
      <g>
       <use xlink:href="#m4c193cd9bf" x="57.6" y="205.223863" style="stroke: #000000; stroke-width: 0.6"/>
      </g>
     </g>
    </g>
    <g id="ytick_11">
     <g id="line2d_38">
      <g>
       <use xlink:href="#m4c193cd9bf" x="57.6" y="195.85576" style="stroke: #000000; stroke-width: 0.6"/>
      </g>
     </g>
    </g>
    <g id="ytick_12">
     <g id="line2d_39">
      <g>
       <use xlink:href="#m4c193cd9bf" x="57.6" y="187.935141" style="stroke: #000000; stroke-width: 0.6"/>
      </g>
     </g>
    </g>
    <g id="ytick_13">
     <g id="line2d_40">
      <g>
       <use xlink:href="#m4c193cd9bf" x="57.6" y="181.073988" style="stroke: #000000; stroke-width: 0.6"/>
      </g>
     </g>
    </g>
    <g id="ytick_14">
     <g id="line2d_41">
      <g>
       <use xlink:href="#m4c193cd9bf" x="57.6" y="175.022023" style="stroke: #000000; stroke-width: 0.6"/>
      </g>
     </g>
    </g>
    <g id="ytick_15">
     <g id="line2d_42">
      <g>
       <use xlink:href="#m4c193cd9bf" x="57.6" y="133.992849" style="stroke: #000000; stroke-width: 0.6"/>
      </g>
     </g>
    </g>
    <g id="ytick_16">
     <g id="line2d_43">
      <g>
       <use xlink:href="#m4c193cd9bf" x="57.6" y="113.159112" style="stroke: #000000; stroke-width: 0.6"/>
      </g>
     </g>
    </g>
    <g id="ytick_17">
     <g id="line2d_44">
      <g>
       <use xlink:href="#m4c193cd9bf" x="57.6" y="98.377341" style="stroke: #000000; stroke-width: 0.6"/>
      </g>
     </g>
    </g>
    <g id="ytick_18">
     <g id="line2d_45">
      <g>
       <use xlink:href="#m4c193cd9bf" x="57.6" y="86.911709" style="stroke: #000000; stroke-width: 0.6"/>
      </g>
     </g>
    </g>
    <g id="ytick_19">
     <g id="line2d_46">
      <g>
       <use xlink:href="#m4c193cd9bf" x="57.6" y="77.543605" style="stroke: #000000; stroke-width: 0.6"/>
      </g>
     </g>
    </g>
    <g id="ytick_20">
     <g id="line2d_47">
      <g>
       <use xlink:href="#m4c193cd9bf" x="57.6" y="69.622986" style="stroke: #000000; stroke-width: 0.6"/>
      </g>
     </g>
    </g>
    <g id="ytick_21">
     <g id="line2d_48">
      <g>
       <use xlink:href="#m4c193cd9bf" x="57.6" y="62.761834" style="stroke: #000000; stroke-width: 0.6"/>
      </g>
     </g>
    </g>
    <g id="ytick_22">
     <g id="line2d_49">
      <g>
       <use xlink:href="#m4c193cd9bf" x="57.6" y="56.709869" style="stroke: #000000; stroke-width: 0.6"/>
      </g>
     </g>
    </g>
    <g id="text_8">
     <!-- |H(f)| (V) -->
     <g transform="translate(20.742188 196.229562) rotate(-90) scale(0.1 -0.1)">
      <defs>
       <path id="DejaVuSans-7c" d="M 1344 4891 
L 1344 -1509 
L 813 -1509 
L 813 4891 
L 1344 4891 
z
" transform="scale(0.015625)"/>
       <path id="DejaVuSans-66" d="M 2375 4863 
L 2375 4384 
L 1825 4384 
Q 1516 4384 1395 4259 
Q 1275 4134 1275 3809 
L 1275 3500 
L 2222 3500 
L 2222 3053 
L 1275 3053 
L 1275 0 
L 697 0 
L 697 3053 
L 147 3053 
L 147 3500 
L 697 3500 
L 697 3744 
Q 697 4328 969 4595 
Q 1241 4863 1831 4863 
L 2375 4863 
z
" transform="scale(0.015625)"/>
       <path id="DejaVuSans-56" d="M 1831 0 
L 50 4666 
L 709 4666 
L 2188 738 
L 3669 4666 
L 4325 4666 
L 2547 0 
L 1831 0 
z
" transform="scale(0.015625)"/>
      </defs>
      <use xlink:href="#DejaVuSans-7c"/>
      <use xlink:href="#DejaVuSans-48" x="33.691406"/>
      <use xlink:href="#DejaVuSans-28" x="108.886719"/>
      <use xlink:href="#DejaVuSans-66" x="147.900391"/>
      <use xlink:href="#DejaVuSans-29" x="183.105469"/>
      <use xlink:href="#DejaVuSans-7c" x="222.119141"/>
      <use xlink:href="#DejaVuSans-20" x="255.810547"/>
      <use xlink:href="#DejaVuSans-28" x="287.597656"/>
      <use xlink:href="#DejaVuSans-56" x="326.611328"/>
      <use xlink:href="#DejaVuSans-29" x="395.019531"/>
     </g>
    </g>
   </g>
   <g id="LineCollection_1">
    <path d="M 73.832727 295.488 
L 73.832727 294.009096 
" clip-path="url(#p3bf2e7408a)" style="fill: none; stroke: #1f77b4; stroke-width: 1.5"/>
    <path d="M 81.822155 284.267995 
L 81.822155 282.872131 
" clip-path="url(#p3bf2e7408a)" style="fill: none; stroke: #1f77b4; stroke-width: 1.5"/>
    <path d="M 90.125604 272.24765 
L 90.125604 271.179431 
" clip-path="url(#p3bf2e7408a)" style="fill: none; stroke: #1f77b4; stroke-width: 1.5"/>
    <path d="M 98.055059 261.047292 
L 98.055059 260.2918 
" clip-path="url(#p3bf2e7408a)" style="fill: none; stroke: #1f77b4; stroke-width: 1.5"/>
    <path d="M 106.08019 250.070164 
L 106.08019 249.084652 
" clip-path="url(#p3bf2e7408a)" style="fill: none; stroke: #1f77b4; stroke-width: 1.5"/>
    <path d="M 114.482723 238.212705 
L 114.482723 237.367473 
" clip-path="url(#p3bf2e7408a)" style="fill: none; stroke: #1f77b4; stroke-width: 1.5"/>
    <path d="M 122.698105 226.786432 
L 122.698105 225.898455 
" clip-path="url(#p3bf2e7408a)" style="fill: none; stroke: #1f77b4; stroke-width: 1.5"/>
    <path d="M 130.687533 215.798866 
L 130.687533 214.918439 
" clip-path="url(#p3bf2e7408a)" style="fill: none; stroke: #1f77b4; stroke-width: 1.5"/>
    <path d="M 138.710672 204.812621 
L 138.710672 203.958694 
" clip-path="url(#p3bf2e7408a)" style="fill: none; stroke: #1f77b4; stroke-width: 1.5"/>
    <path d="M 146.920437 194.077512 
L 146.920437 193.070585 
" clip-path="url(#p3bf2e7408a)" style="fill: none; stroke: #1f77b4; stroke-width: 1.5"/>
    <path d="M 154.945569 183.989395 
L 154.945569 182.919028 
" clip-path="url(#p3bf2e7408a)" style="fill: none; stroke: #1f77b4; stroke-width: 1.5"/>
    <path d="M 163.149795 173.571451 
L 163.149795 172.43954 
" clip-path="url(#p3bf2e7408a)" style="fill: none; stroke: #1f77b4; stroke-width: 1.5"/>
    <path d="M 171.21011 163.540275 
L 171.21011 162.121569 
" clip-path="url(#p3bf2e7408a)" style="fill: none; stroke: #1f77b4; stroke-width: 1.5"/>
    <path d="M 179.395374 153.640036 
L 179.395374 152.081308 
" clip-path="url(#p3bf2e7408a)" style="fill: none; stroke: #1f77b4; stroke-width: 1.5"/>
    <path d="M 187.435477 145.209294 
L 187.435477 142.015564 
" clip-path="url(#p3bf2e7408a)" style="fill: none; stroke: #1f77b4; stroke-width: 1.5"/>
    <path d="M 195.535379 135.300213 
L 195.535379 133.152954 
" clip-path="url(#p3bf2e7408a)" style="fill: none; stroke: #1f77b4; stroke-width: 1.5"/>
    <path d="M 203.699311 128.421533 
L 203.699311 122.900763 
" clip-path="url(#p3bf2e7408a)" style="fill: none; stroke: #1f77b4; stroke-width: 1.5"/>
    <path d="M 211.816308 118.664396 
L 211.816308 115.569253 
" clip-path="url(#p3bf2e7408a)" style="fill: none; stroke: #1f77b4; stroke-width: 1.5"/>
    <path d="M 219.898135 111.299062 
L 219.898135 107.574048 
" clip-path="url(#p3bf2e7408a)" style="fill: none; stroke: #1f77b4; stroke-width: 1.5"/>
    <path d="M 228.023784 104.098212 
L 228.023784 100.362325 
" clip-path="url(#p3bf2e7408a)" style="fill: none; stroke: #1f77b4; stroke-width: 1.5"/>
    <path d="M 236.16 97.983101 
L 236.16 93.621261 
" clip-path="url(#p3bf2e7408a)" style="fill: none; stroke: #1f77b4; stroke-width: 1.5"/>
    <path d="M 244.275204 92.407373 
L 244.275204 87.527703 
" clip-path="url(#p3bf2e7408a)" style="fill: none; stroke: #1f77b4; stroke-width: 1.5"/>
    <path d="M 252.396904 87.378592 
L 252.396904 82.12729 
" clip-path="url(#p3bf2e7408a)" style="fill: none; stroke: #1f77b4; stroke-width: 1.5"/>
    <path d="M 260.532168 83.045312 
L 260.532168 77.581423 
" clip-path="url(#p3bf2e7408a)" style="fill: none; stroke: #1f77b4; stroke-width: 1.5"/>
    <path d="M 268.630205 79.454259 
L 268.630205 73.609751 
" clip-path="url(#p3bf2e7408a)" style="fill: none; stroke: #1f77b4; stroke-width: 1.5"/>
    <path d="M 276.73074 76.409596 
L 276.73074 70.080302 
" clip-path="url(#p3bf2e7408a)" style="fill: none; stroke: #1f77b4; stroke-width: 1.5"/>
    <path d="M 284.848913 73.842613 
L 284.848913 67.108187 
" clip-path="url(#p3bf2e7408a)" style="fill: none; stroke: #1f77b4; stroke-width: 1.5"/>
    <path d="M 292.983326 71.568646 
L 292.983326 64.547534 
" clip-path="url(#p3bf2e7408a)" style="fill: none; stroke: #1f77b4; stroke-width: 1.5"/>
    <path d="M 301.094096 70.04454 
L 301.094096 62.185779 
" clip-path="url(#p3bf2e7408a)" style="fill: none; stroke: #1f77b4; stroke-width: 1.5"/>
    <path d="M 309.197694 67.848885 
L 309.197694 60.46223 
" clip-path="url(#p3bf2e7408a)" style="fill: none; stroke: #1f77b4; stroke-width: 1.5"/>
    <path d="M 317.317446 66.950104 
L 317.317446 59.242521 
" clip-path="url(#p3bf2e7408a)" style="fill: none; stroke: #1f77b4; stroke-width: 1.5"/>
    <path d="M 325.43734 65.847557 
L 325.43734 58.010893 
" clip-path="url(#p3bf2e7408a)" style="fill: none; stroke: #1f77b4; stroke-width: 1.5"/>
    <path d="M 333.555094 65.027926 
L 333.555094 57.081407 
" clip-path="url(#p3bf2e7408a)" style="fill: none; stroke: #1f77b4; stroke-width: 1.5"/>
    <path d="M 341.675317 64.401155 
L 341.675317 56.258616 
" clip-path="url(#p3bf2e7408a)" style="fill: none; stroke: #1f77b4; stroke-width: 1.5"/>
    <path d="M 349.790887 63.763098 
L 349.790887 55.804842 
" clip-path="url(#p3bf2e7408a)" style="fill: none; stroke: #1f77b4; stroke-width: 1.5"/>
    <path d="M 357.900274 65.027282 
L 357.900274 56.34399 
" clip-path="url(#p3bf2e7408a)" style="fill: none; stroke: #1f77b4; stroke-width: 1.5"/>
    <path d="M 366.026584 62.583035 
L 366.026584 54.413532 
" clip-path="url(#p3bf2e7408a)" style="fill: none; stroke: #1f77b4; stroke-width: 1.5"/>
    <path d="M 374.133622 62.567 
L 374.133622 54.38163 
" clip-path="url(#p3bf2e7408a)" style="fill: none; stroke: #1f77b4; stroke-width: 1.5"/>
    <path d="M 382.25204 62.557162 
L 382.25204 54.412348 
" clip-path="url(#p3bf2e7408a)" style="fill: none; stroke: #1f77b4; stroke-width: 1.5"/>
    <path d="M 390.37479 61.691603 
L 390.37479 53.568 
" clip-path="url(#p3bf2e7408a)" style="fill: none; stroke: #1f77b4; stroke-width: 1.5"/>
    <path d="M 398.487273 61.763302 
L 398.487273 53.848021 
" clip-path="url(#p3bf2e7408a)" style="fill: none; stroke: #1f77b4; stroke-width: 1.5"/>
   </g>
   <g id="line2d_50">
    <defs>
     <path id="m99d8315423" d="M 0 1.5 
C 0.397805 1.5 0.77937 1.341951 1.06066 1.06066 
C 1.341951 0.77937 1.5 0.397805 1.5 0 
C 1.5 -0.397805 1.341951 -0.77937 1.06066 -1.06066 
C 0.77937 -1.341951 0.397805 -1.5 0 -1.5 
C -0.397805 -1.5 -0.77937 -1.341951 -1.06066 -1.06066 
C -1.341951 -0.77937 -1.5 -0.397805 -1.5 0 
C -1.5 0.397805 -1.341951 0.77937 -1.06066 1.06066 
C -0.77937 1.341951 -0.397805 1.5 0 1.5 
z
" style="stroke: #1f77b4"/>
    </defs>
    <g clip-path="url(#p3bf2e7408a)">
     <use xlink:href="#m99d8315423" x="73.832727" y="294.743227" style="fill: #1f77b4; stroke: #1f77b4"/>
     <use xlink:href="#m99d8315423" x="81.822155" y="283.565323" style="fill: #1f77b4; stroke: #1f77b4"/>
     <use xlink:href="#m99d8315423" x="90.125604" y="271.710764" style="fill: #1f77b4; stroke: #1f77b4"/>
     <use xlink:href="#m99d8315423" x="98.055059" y="260.668158" style="fill: #1f77b4; stroke: #1f77b4"/>
     <use xlink:href="#m99d8315423" x="106.08019" y="249.575045" style="fill: #1f77b4; stroke: #1f77b4"/>
     <use xlink:href="#m99d8315423" x="114.482723" y="237.788351" style="fill: #1f77b4; stroke: #1f77b4"/>
     <use xlink:href="#m99d8315423" x="122.698105" y="226.340525" style="fill: #1f77b4; stroke: #1f77b4"/>
     <use xlink:href="#m99d8315423" x="130.687533" y="215.356767" style="fill: #1f77b4; stroke: #1f77b4"/>
     <use xlink:href="#m99d8315423" x="138.710672" y="204.383884" style="fill: #1f77b4; stroke: #1f77b4"/>
     <use xlink:href="#m99d8315423" x="146.920437" y="193.571582" style="fill: #1f77b4; stroke: #1f77b4"/>
     <use xlink:href="#m99d8315423" x="154.945569" y="183.451425" style="fill: #1f77b4; stroke: #1f77b4"/>
     <use xlink:href="#m99d8315423" x="163.149795" y="173.002379" style="fill: #1f77b4; stroke: #1f77b4"/>
     <use xlink:href="#m99d8315423" x="171.21011" y="162.826026" style="fill: #1f77b4; stroke: #1f77b4"/>
     <use xlink:href="#m99d8315423" x="179.395374" y="152.854762" style="fill: #1f77b4; stroke: #1f77b4"/>
     <use xlink:href="#m99d8315423" x="187.435477" y="143.587619" style="fill: #1f77b4; stroke: #1f77b4"/>
     <use xlink:href="#m99d8315423" x="195.535379" y="134.215368" style="fill: #1f77b4; stroke: #1f77b4"/>
     <use xlink:href="#m99d8315423" x="203.699311" y="125.587036" style="fill: #1f77b4; stroke: #1f77b4"/>
     <use xlink:href="#m99d8315423" x="211.816308" y="117.093523" style="fill: #1f77b4; stroke: #1f77b4"/>
     <use xlink:href="#m99d8315423" x="219.898135" y="109.402807" style="fill: #1f77b4; stroke: #1f77b4"/>
     <use xlink:href="#m99d8315423" x="228.023784" y="102.196323" style="fill: #1f77b4; stroke: #1f77b4"/>
     <use xlink:href="#m99d8315423" x="236.16" y="95.75591" style="fill: #1f77b4; stroke: #1f77b4"/>
     <use xlink:href="#m99d8315423" x="244.275204" y="89.909634" style="fill: #1f77b4; stroke: #1f77b4"/>
     <use xlink:href="#m99d8315423" x="252.396904" y="84.685885" style="fill: #1f77b4; stroke: #1f77b4"/>
     <use xlink:href="#m99d8315423" x="260.532168" y="80.240774" style="fill: #1f77b4; stroke: #1f77b4"/>
     <use xlink:href="#m99d8315423" x="268.630205" y="76.448952" style="fill: #1f77b4; stroke: #1f77b4"/>
     <use xlink:href="#m99d8315423" x="276.73074" y="73.147555" style="fill: #1f77b4; stroke: #1f77b4"/>
     <use xlink:href="#m99d8315423" x="284.848913" y="70.365148" style="fill: #1f77b4; stroke: #1f77b4"/>
     <use xlink:href="#m99d8315423" x="292.983326" y="67.938259" style="fill: #1f77b4; stroke: #1f77b4"/>
     <use xlink:href="#m99d8315423" x="301.094096" y="65.965059" style="fill: #1f77b4; stroke: #1f77b4"/>
     <use xlink:href="#m99d8315423" x="309.197694" y="64.022934" style="fill: #1f77b4; stroke: #1f77b4"/>
     <use xlink:href="#m99d8315423" x="317.317446" y="62.951926" style="fill: #1f77b4; stroke: #1f77b4"/>
     <use xlink:href="#m99d8315423" x="325.43734" y="61.779967" style="fill: #1f77b4; stroke: #1f77b4"/>
     <use xlink:href="#m99d8315423" x="333.555094" y="60.901198" style="fill: #1f77b4; stroke: #1f77b4"/>
     <use xlink:href="#m99d8315423" x="341.675317" y="60.168761" style="fill: #1f77b4; stroke: #1f77b4"/>
     <use xlink:href="#m99d8315423" x="349.790887" y="59.630049" style="fill: #1f77b4; stroke: #1f77b4"/>
     <use xlink:href="#m99d8315423" x="357.900274" y="60.502426" style="fill: #1f77b4; stroke: #1f77b4"/>
     <use xlink:href="#m99d8315423" x="366.026584" y="58.336091" style="fill: #1f77b4; stroke: #1f77b4"/>
     <use xlink:href="#m99d8315423" x="374.133622" y="58.311493" style="fill: #1f77b4; stroke: #1f77b4"/>
     <use xlink:href="#m99d8315423" x="382.25204" y="58.32354" style="fill: #1f77b4; stroke: #1f77b4"/>
     <use xlink:href="#m99d8315423" x="390.37479" y="57.469425" style="fill: #1f77b4; stroke: #1f77b4"/>
     <use xlink:href="#m99d8315423" x="398.487273" y="57.653396" style="fill: #1f77b4; stroke: #1f77b4"/>
    </g>
   </g>
   <g id="patch_3">
    <path d="M 57.6 307.584 
L 57.6 41.472 
" style="fill: none; stroke: #000000; stroke-width: 0.8; stroke-linejoin: miter; stroke-linecap: square"/>
   </g>
   <g id="patch_4">
    <path d="M 414.72 307.584 
L 414.72 41.472 
" style="fill: none; stroke: #000000; stroke-width: 0.8; stroke-linejoin: miter; stroke-linecap: square"/>
   </g>
   <g id="patch_5">
    <path d="M 57.6 307.584 
L 414.72 307.584 
" style="fill: none; stroke: #000000; stroke-width: 0.8; stroke-linejoin: miter; stroke-linecap: square"/>
   </g>
   <g id="patch_6">
    <path d="M 57.6 41.472 
L 414.72 41.472 
" style="fill: none; stroke: #000000; stroke-width: 0.8; stroke-linejoin: miter; stroke-linecap: square"/>
   </g>
   <g id="text_9">
    <!-- Data/2024-07-27T20:01-04:00.csv -->
    <g transform="translate(132.64875 35.472) scale(0.12 -0.12)">
     <defs>
      <path id="DejaVuSans-44" d="M 1259 4147 
L 1259 519 
L 2022 519 
Q 2988 519 3436 956 
Q 3884 1394 3884 2338 
Q 3884 3275 3436 3711 
Q 2988 4147 2022 4147 
L 1259 4147 
z
M 628 4666 
L 1925 4666 
Q 3281 4666 3915 4102 
Q 4550 3538 4550 2338 
Q 4550 1131 3912 565 
Q 3275 0 1925 0 
L 628 0 
L 628 4666 
z
" transform="scale(0.015625)"/>
      <path id="DejaVuSans-61" d="M 2194 1759 
Q 1497 1759 1228 1600 
Q 959 1441 959 1056 
Q 959 750 1161 570 
Q 1363 391 1709 391 
Q 2188 391 2477 730 
Q 2766 1069 2766 1631 
L 2766 1759 
L 2194 1759 
z
M 3341 1997 
L 3341 0 
L 2766 0 
L 2766 531 
Q 2569 213 2275 61 
Q 1981 -91 1556 -91 
Q 1019 -91 701 211 
Q 384 513 384 1019 
Q 384 1609 779 1909 
Q 1175 2209 1959 2209 
L 2766 2209 
L 2766 2266 
Q 2766 2663 2505 2880 
Q 2244 3097 1772 3097 
Q 1472 3097 1187 3025 
Q 903 2953 641 2809 
L 641 3341 
Q 956 3463 1253 3523 
Q 1550 3584 1831 3584 
Q 2591 3584 2966 3190 
Q 3341 2797 3341 1997 
z
" transform="scale(0.015625)"/>
      <path id="DejaVuSans-74" d="M 1172 4494 
L 1172 3500 
L 2356 3500 
L 2356 3053 
L 1172 3053 
L 1172 1153 
Q 1172 725 1289 603 
Q 1406 481 1766 481 
L 2356 481 
L 2356 0 
L 1766 0 
Q 1100 0 847 248 
Q 594 497 594 1153 
L 594 3053 
L 172 3053 
L 172 3500 
L 594 3500 
L 594 4494 
L 1172 4494 
z
" transform="scale(0.015625)"/>
      <path id="DejaVuSans-2f" d="M 1625 4666 
L 2156 4666 
L 531 -594 
L 0 -594 
L 1625 4666 
z
" transform="scale(0.015625)"/>
      <path id="DejaVuSans-2d" d="M 313 2009 
L 1997 2009 
L 1997 1497 
L 313 1497 
L 313 2009 
z
" transform="scale(0.015625)"/>
      <path id="DejaVuSans-37" d="M 525 4666 
L 3525 4666 
L 3525 4397 
L 1831 0 
L 1172 0 
L 2766 4134 
L 525 4134 
L 525 4666 
z
" transform="scale(0.015625)"/>
      <path id="DejaVuSans-54" d="M -19 4666 
L 3928 4666 
L 3928 4134 
L 2272 4134 
L 2272 0 
L 1638 0 
L 1638 4134 
L -19 4134 
L -19 4666 
z
" transform="scale(0.015625)"/>
      <path id="DejaVuSans-3a" d="M 750 794 
L 1409 794 
L 1409 0 
L 750 0 
L 750 794 
z
M 750 3309 
L 1409 3309 
L 1409 2516 
L 750 2516 
L 750 3309 
z
" transform="scale(0.015625)"/>
      <path id="DejaVuSans-2e" d="M 684 794 
L 1344 794 
L 1344 0 
L 684 0 
L 684 794 
z
" transform="scale(0.015625)"/>
      <path id="DejaVuSans-73" d="M 2834 3397 
L 2834 2853 
Q 2591 2978 2328 3040 
Q 2066 3103 1784 3103 
Q 1356 3103 1142 2972 
Q 928 2841 928 2578 
Q 928 2378 1081 2264 
Q 1234 2150 1697 2047 
L 1894 2003 
Q 2506 1872 2764 1633 
Q 3022 1394 3022 966 
Q 3022 478 2636 193 
Q 2250 -91 1575 -91 
Q 1294 -91 989 -36 
Q 684 19 347 128 
L 347 722 
Q 666 556 975 473 
Q 1284 391 1588 391 
Q 1994 391 2212 530 
Q 2431 669 2431 922 
Q 2431 1156 2273 1281 
Q 2116 1406 1581 1522 
L 1381 1569 
Q 847 1681 609 1914 
Q 372 2147 372 2553 
Q 372 3047 722 3315 
Q 1072 3584 1716 3584 
Q 2034 3584 2315 3537 
Q 2597 3491 2834 3397 
z
" transform="scale(0.015625)"/>
      <path id="DejaVuSans-76" d="M 191 3500 
L 800 3500 
L 1894 563 
L 2988 3500 
L 3597 3500 
L 2284 0 
L 1503 0 
L 191 3500 
z
" transform="scale(0.015625)"/>
     </defs>
     <use xlink:href="#DejaVuSans-44"/>
     <use xlink:href="#DejaVuSans-61" x="77.001953"/>
     <use xlink:href="#DejaVuSans-74" x="138.28125"/>
     <use xlink:href="#DejaVuSans-61" x="177.490234"/>
     <use xlink:href="#DejaVuSans-2f" x="238.769531"/>
     <use xlink:href="#DejaVuSans-32" x="272.460938"/>
     <use xlink:href="#DejaVuSans-30" x="336.083984"/>
     <use xlink:href="#DejaVuSans-32" x="399.707031"/>
     <use xlink:href="#DejaVuSans-34" x="463.330078"/>
     <use xlink:href="#DejaVuSans-2d" x="526.953125"/>
     <use xlink:href="#DejaVuSans-30" x="563.037109"/>
     <use xlink:href="#DejaVuSans-37" x="626.660156"/>
     <use xlink:href="#DejaVuSans-2d" x="690.283203"/>
     <use xlink:href="#DejaVuSans-32" x="726.367188"/>
     <use xlink:href="#DejaVuSans-37" x="789.990234"/>
     <use xlink:href="#DejaVuSans-54" x="853.613281"/>
     <use xlink:href="#DejaVuSans-32" x="914.697266"/>
     <use xlink:href="#DejaVuSans-30" x="978.320312"/>
     <use xlink:href="#DejaVuSans-3a" x="1041.943359"/>
     <use xlink:href="#DejaVuSans-30" x="1075.634766"/>
     <use xlink:href="#DejaVuSans-31" x="1139.257812"/>
     <use xlink:href="#DejaVuSans-2d" x="1202.880859"/>
     <use xlink:href="#DejaVuSans-30" x="1238.964844"/>
     <use xlink:href="#DejaVuSans-34" x="1302.587891"/>
     <use xlink:href="#DejaVuSans-3a" x="1366.210938"/>
     <use xlink:href="#DejaVuSans-30" x="1399.902344"/>
     <use xlink:href="#DejaVuSans-30" x="1463.525391"/>
     <use xlink:href="#DejaVuSans-2e" x="1527.148438"/>
     <use xlink:href="#DejaVuSans-63" x="1558.935547"/>
     <use xlink:href="#DejaVuSans-73" x="1613.916016"/>
     <use xlink:href="#DejaVuSans-76" x="1666.015625"/>
    </g>
   </g>
  </g>
 </g>
 <defs>
  <clipPath id="p3bf2e7408a">
   <rect x="57.6" y="41.472" width="357.12" height="266.112"/>
  </clipPath>
 </defs>
</svg>
